<svg xmlns="http://www.w3.org/2000/svg" width="1200" height="700" viewBox="0 0 1200 700">
  <defs>
    <linearGradient id="g" x1="0" y1="0" x2="1" y2="1">
      <stop offset="0" stop-color="#0ea5e9" stop-opacity="0.25"/>
      <stop offset="0.55" stop-color="#1d4ed8" stop-opacity="0.18"/>
      <stop offset="1" stop-color="#0b1220"/>
    </linearGradient>
    <radialGradient id="r" cx="30%" cy="35%" r="65%">
      <stop offset="0" stop-color="#22d3ee" stop-opacity="0.35"/>
      <stop offset="1" stop-color="#000" stop-opacity="0"/>
    </radialGradient>
  </defs>
  <rect width="1200" height="700" fill="url(#g)"/>
  <rect width="1200" height="700" fill="url(#r)"/>
  <g fill="none" stroke="#22d3ee" stroke-opacity="0.35" stroke-width="2">
    <path d="M160 520 C260 420, 340 420, 440 520"/>
    <path d="M440 520 C540 420, 620 420, 720 520"/>
    <path d="M720 520 C820 420, 900 420, 1040 520"/>
  </g>
  <g fill="none" stroke="#93c5fd" stroke-opacity="0.35" stroke-width="2">
    <circle cx="240" cy="240" r="120"/>
    <circle cx="240" cy="240" r="70"/>
    <circle cx="930" cy="250" r="140"/>
  </g>
  <g transform="translate(520 210)">
    <path d="M80 0 L160 34 L160 128 C160 195 117 253 80 270 C43 253 0 195 0 128 L0 34 Z" fill="#0b1220" stroke="#22d3ee" stroke-opacity="0.55" stroke-width="3"/>
    <path d="M80 56 a34 34 0 1 1 0.1 0" fill="none" stroke="#22d3ee" stroke-opacity="0.55" stroke-width="3"/>
    <path d="M80 90 v56" stroke="#22d3ee" stroke-opacity="0.55" stroke-width="3"/>
  </g>
</svg>
